<?xml version="1.0" encoding="utf-8"?>
<!-- Generator: Adobe Illustrator 24.0.2, SVG Export Plug-In . SVG Version: 6.00 Build 0)  -->
<svg version="1.1" xmlns="http://www.w3.org/2000/svg" xmlns:xlink="http://www.w3.org/1999/xlink" x="0px" y="0px"
	 viewBox="0 0 800 1667" style="enable-background:new 0 0 800 1667;" xml:space="preserve">
<style type="text/css">
	.st0{fill:#999999;}
	.st1{fill:#4D4D4D;}
	.st2{fill:#86EFAC;}
	.st3{font-family:'HelveticaNeueLTPro-MdEx';}
	.st4{font-size:36px;}
	.st5{font-family:'ArialMT';}
	.st6{fill:#333333;}
	.st7{font-size:18px;}
	.st8{fill:#616161;}
	.st9{fill:#99A39D;}
	.st10{fill:#F2F2F2;}
	.st11{fill:#B3B3B3;}
	.st12{fill:#FFFFFF;}
</style>
<g id="typograph">
	<g>
		<path class="st0" d="M60.7,1333.4c-0.3,0-0.6,0.1-1,0.3c-0.4,0.1-0.9,0.2-1.4,0.2c-1.1,0-1.9-0.3-2.5-0.8s-0.8-1.5-0.8-2.9v-13.6
			h-2.6v-1.8h2.6v-5.2h2.2v5.2h3.5v1.8h-3.5v12.8c0,0.5,0,0.9,0,1.2c0,0.3,0.1,0.6,0.2,0.8s0.3,0.4,0.6,0.5s0.6,0.1,1.1,0.1
			c0.3,0,0.6,0,0.9-0.1c0.3,0,0.6-0.1,0.9-0.2V1333.4z"/>
		<path class="st0" d="M64,1338.4c0.3,0,0.6,0.1,0.9,0.1c0.3,0,0.6,0.1,0.9,0.1c0.6,0,1.1-0.2,1.5-0.6c0.4-0.4,0.7-0.8,1-1.4
			c0.3-0.5,0.5-1.1,0.6-1.7c0.2-0.6,0.4-1.1,0.6-1.5l-7.2-18.8h2.4l6,16l6-16h2.3l-6.9,18.4c-0.4,1.2-0.8,2.2-1.2,3.2
			s-0.8,1.7-1.3,2.4c-0.4,0.7-0.9,1.2-1.5,1.5c-0.5,0.3-1.2,0.5-1.9,0.5c-0.4,0-0.8,0-1.1-0.1c-0.3,0-0.7-0.1-1-0.2V1338.4z"/>
		<path class="st0" d="M84.6,1340.7h-2.2v-26h2.2v3.3h0.1c0.3-0.6,0.7-1.1,1.2-1.6c0.5-0.5,1-0.9,1.6-1.2c0.6-0.3,1.2-0.6,1.8-0.7
			c0.6-0.2,1.2-0.3,1.8-0.3c1.5,0,2.8,0.3,3.9,0.8c1.1,0.5,1.9,1.2,2.6,2.1c0.7,0.9,1.2,1.9,1.5,3.1s0.5,2.5,0.5,3.9
			c0,1.3-0.2,2.5-0.5,3.7c-0.3,1.2-0.8,2.2-1.5,3.2c-0.7,0.9-1.5,1.6-2.6,2.2c-1,0.5-2.3,0.8-3.7,0.8c-1.3,0-2.6-0.3-3.8-0.9
			c-1.2-0.6-2.2-1.5-2.9-2.6V1340.7z M84.6,1324.1c0,1.1,0.1,2.1,0.4,3c0.3,0.9,0.7,1.8,1.2,2.5s1.2,1.3,2,1.7
			c0.8,0.4,1.7,0.6,2.6,0.6c1.1,0,2.1-0.2,2.9-0.7c0.8-0.4,1.5-1,2-1.8c0.5-0.8,0.9-1.7,1.2-2.7c0.2-1,0.3-2.1,0.3-3.3
			c0-1.2-0.2-2.2-0.5-3.1c-0.3-0.9-0.8-1.7-1.4-2.3s-1.2-1.1-2-1.4c-0.8-0.3-1.6-0.5-2.5-0.5c-1,0-1.9,0.2-2.7,0.6
			c-0.8,0.4-1.5,1-2,1.7c-0.5,0.7-0.9,1.5-1.2,2.5C84.7,1321.9,84.6,1323,84.6,1324.1z"/>
		<path class="st0" d="M111.6,1333.9c-1.2,0-2.3-0.2-3.4-0.6c-1-0.4-2-1-2.7-1.8c-0.8-0.8-1.4-1.8-1.9-3.1s-0.7-2.7-0.7-4.3
			c0-1.4,0.2-2.6,0.5-3.8c0.4-1.2,0.9-2.2,1.6-3.1c0.7-0.9,1.6-1.6,2.7-2.1c1.1-0.5,2.3-0.8,3.8-0.8c1.5,0,2.7,0.3,3.8,0.8
			c1.1,0.5,2,1.2,2.7,2.1c0.7,0.9,1.3,1.9,1.6,3.1c0.3,1.2,0.5,2.5,0.5,3.9c0,1.5-0.2,2.8-0.6,4c-0.4,1.2-1,2.2-1.7,3.1
			c-0.8,0.9-1.7,1.5-2.7,2S112.9,1333.9,111.6,1333.9z M117.9,1324c0-1.1-0.1-2.1-0.4-3.1c-0.2-1-0.6-1.8-1.1-2.5s-1.2-1.3-1.9-1.7
			s-1.8-0.6-2.9-0.6c-1.1,0-2.1,0.2-2.9,0.7c-0.8,0.4-1.5,1-2,1.8c-0.5,0.7-0.9,1.6-1.1,2.5c-0.2,0.9-0.4,1.9-0.4,2.9
			c0,1.2,0.1,2.2,0.4,3.2c0.3,1,0.7,1.8,1.2,2.5c0.5,0.7,1.2,1.2,2,1.6s1.7,0.6,2.7,0.6c1.1,0,2.1-0.2,2.9-0.7c0.8-0.4,1.5-1,2-1.8
			s0.9-1.6,1.1-2.5C117.8,1326,117.9,1325.1,117.9,1324z"/>
		<path class="st0" d="M138.6,1314.7h2.2v16.8c0,1.2-0.1,2.4-0.4,3.6c-0.3,1.1-0.7,2.1-1.4,3c-0.6,0.9-1.5,1.6-2.7,2.1
			c-1.1,0.5-2.6,0.8-4.4,0.8c-1.4,0-2.5-0.2-3.5-0.5c-1-0.3-1.8-0.8-2.4-1.3c-0.6-0.5-1.1-1.1-1.4-1.7s-0.5-1.2-0.5-1.8h2.3
			c0.2,0.7,0.4,1.3,0.8,1.7c0.4,0.4,0.8,0.8,1.3,1c0.5,0.3,1,0.4,1.6,0.5c0.6,0.1,1.2,0.1,1.9,0.1c1.5,0,2.6-0.3,3.5-0.8
			s1.6-1.2,2-2c0.5-0.8,0.8-1.7,0.9-2.8c0.1-1,0.2-2.1,0.2-3.2c-0.7,1.2-1.7,2-2.9,2.6s-2.5,0.9-3.8,0.9c-1.4,0-2.6-0.3-3.7-0.8
			c-1-0.5-1.9-1.3-2.6-2.2c-0.7-0.9-1.2-2-1.5-3.2c-0.3-1.2-0.5-2.4-0.5-3.7c0-1.4,0.2-2.7,0.5-3.9c0.3-1.2,0.8-2.2,1.5-3.1
			c0.7-0.9,1.6-1.6,2.6-2.1c1.1-0.5,2.3-0.8,3.9-0.8c0.6,0,1.2,0.1,1.8,0.3c0.6,0.2,1.2,0.4,1.8,0.7s1.1,0.7,1.6,1.2
			c0.5,0.5,0.9,1,1.2,1.6h0.1V1314.7z M138.6,1324.1c0-1.1-0.1-2.2-0.4-3.2c-0.3-1-0.7-1.8-1.2-2.5c-0.5-0.7-1.2-1.3-2-1.7
			s-1.7-0.6-2.7-0.6c-0.9,0-1.8,0.2-2.5,0.5c-0.8,0.3-1.4,0.8-2,1.4c-0.6,0.6-1,1.4-1.4,2.3c-0.3,0.9-0.5,1.9-0.5,3.1
			c0,1.2,0,2.3,0.3,3.3c0.2,1,0.6,1.9,1.2,2.7c0.5,0.8,1.2,1.4,2,1.8c0.8,0.4,1.8,0.7,2.9,0.7c1,0,1.9-0.2,2.6-0.6
			c0.8-0.4,1.4-1,2-1.7s1-1.5,1.2-2.5C138.4,1326.2,138.6,1325.2,138.6,1324.1z"/>
		<path class="st0" d="M148.4,1333.4h-2.2v-18.6h2.2v3.5h0.1c0.6-1.5,1.4-2.5,2.3-3.1s2.2-0.9,3.8-0.9v2.3c-1.2,0-2.2,0.2-3,0.6
			c-0.8,0.4-1.4,1-1.9,1.7c-0.5,0.7-0.8,1.5-1,2.5c-0.2,0.9-0.3,1.9-0.3,3V1333.4z"/>
		<path class="st0" d="M166.7,1322.5c0.4,0,0.9-0.1,1.5-0.2c0.6-0.1,1-0.2,1.4-0.4c0.4-0.2,0.6-0.4,0.7-0.8c0.1-0.4,0.1-0.8,0.1-1.1
			c0-1.1-0.4-2-1.1-2.7c-0.7-0.7-1.9-1.1-3.6-1.1c-0.7,0-1.4,0.1-2.1,0.2s-1.2,0.4-1.6,0.7s-0.9,0.8-1.2,1.3s-0.5,1.2-0.6,2h-2.2
			c0.1-1.1,0.3-2,0.8-2.8c0.4-0.8,1-1.4,1.7-1.9c0.7-0.5,1.5-0.9,2.4-1.1c0.9-0.2,1.9-0.3,2.9-0.3c0.9,0,1.8,0.1,2.6,0.3
			s1.5,0.5,2.2,1c0.6,0.4,1.1,1,1.4,1.8s0.5,1.7,0.5,2.7v10.2c0,0.8,0.1,1.4,0.5,1.6c0.3,0.2,0.9,0.2,1.8-0.2v1.7
			c-0.2,0-0.4,0.1-0.7,0.2c-0.3,0.1-0.6,0.1-1,0.1c-0.3,0-0.7,0-1-0.1c-0.4,0-0.6-0.2-0.9-0.3s-0.4-0.4-0.5-0.6s-0.2-0.5-0.3-0.8
			c0-0.3-0.1-0.6-0.1-1c-0.9,1-2,1.8-3.1,2.3c-1.2,0.5-2.4,0.8-3.8,0.8c-0.8,0-1.6-0.1-2.4-0.3c-0.8-0.2-1.4-0.6-2-1
			c-0.6-0.5-1-1-1.4-1.7c-0.3-0.7-0.5-1.4-0.5-2.4c0-3.2,2.2-5,6.5-5.6L166.7,1322.5z M170.4,1323.6c-0.9,0.4-1.8,0.6-2.8,0.8
			c-0.9,0.1-1.9,0.2-2.8,0.3c-1.7,0.1-2.9,0.5-3.9,1.1s-1.4,1.6-1.4,2.8c0,0.6,0.1,1.1,0.3,1.5s0.5,0.8,0.9,1
			c0.4,0.3,0.8,0.5,1.3,0.6c0.5,0.1,1,0.2,1.5,0.2c0.9,0,1.7-0.1,2.5-0.3c0.8-0.2,1.5-0.5,2.2-1c0.6-0.4,1.1-1,1.5-1.7
			c0.4-0.7,0.6-1.5,0.6-2.4V1323.6z"/>
		<path class="st0" d="M180.6,1340.7h-2.2v-26h2.2v3.3h0.1c0.3-0.6,0.7-1.1,1.2-1.6c0.5-0.5,1-0.9,1.6-1.2c0.6-0.3,1.2-0.6,1.8-0.7
			c0.6-0.2,1.2-0.3,1.8-0.3c1.5,0,2.8,0.3,3.9,0.8c1.1,0.5,1.9,1.2,2.6,2.1c0.7,0.9,1.2,1.9,1.5,3.1s0.5,2.5,0.5,3.9
			c0,1.3-0.2,2.5-0.5,3.7c-0.3,1.2-0.8,2.2-1.5,3.2c-0.7,0.9-1.5,1.6-2.6,2.2c-1,0.5-2.3,0.8-3.7,0.8c-1.3,0-2.6-0.3-3.8-0.9
			c-1.2-0.6-2.2-1.5-2.9-2.6V1340.7z M180.6,1324.1c0,1.1,0.1,2.1,0.4,3c0.3,0.9,0.7,1.8,1.2,2.5s1.2,1.3,2,1.7
			c0.8,0.4,1.7,0.6,2.6,0.6c1.1,0,2.1-0.2,2.9-0.7c0.8-0.4,1.5-1,2-1.8c0.5-0.8,0.9-1.7,1.2-2.7c0.2-1,0.3-2.1,0.3-3.3
			c0-1.2-0.2-2.2-0.5-3.1c-0.3-0.9-0.8-1.7-1.4-2.3s-1.2-1.1-2-1.4c-0.8-0.3-1.6-0.5-2.5-0.5c-1,0-1.9,0.2-2.7,0.6
			c-0.8,0.4-1.5,1-2,1.7c-0.5,0.7-0.9,1.5-1.2,2.5C180.7,1321.9,180.6,1323,180.6,1324.1z"/>
		<path class="st0" d="M200.2,1333.4v-25.9h2.2v9.9c0.9-0.9,1.8-1.7,2.7-2.2s2-0.9,3.3-0.9c1.2,0,2.2,0.2,3.2,0.6
			c1,0.4,1.8,1.1,2.5,2.1c0.5,0.7,0.7,1.4,0.8,2.1s0.1,1.4,0.1,2.2v12.2h-2.2v-12.2c0-1.7-0.4-2.9-1.1-3.8c-0.7-0.8-2-1.3-3.7-1.3
			c-0.7,0-1.3,0.1-1.8,0.3c-0.6,0.2-1.1,0.5-1.5,0.8c-0.4,0.3-0.8,0.7-1.1,1.2c-0.3,0.4-0.6,0.9-0.7,1.4c-0.2,0.6-0.3,1.2-0.4,1.7
			c0,0.6-0.1,1.2-0.1,1.8v10H200.2z"/>
	</g>
	<g>
		<path class="st1" d="M59.8,1384.8c0.8,0.8,1.2,2,1.2,3.6c0,1.7-0.4,3-1.1,3.9s-1.7,1.3-3,1.3c-0.8,0-1.4-0.2-1.9-0.6
			c-0.3-0.2-0.5-0.5-0.8-0.9v5h-2.5v-13.4h2.4v1.4c0.3-0.4,0.6-0.7,0.9-1c0.6-0.4,1.2-0.6,2-0.6C58.1,1383.6,59,1384,59.8,1384.8z
			 M57.9,1386.6c-0.3-0.6-0.9-0.9-1.7-0.9c-0.9,0-1.5,0.4-1.9,1.3c-0.2,0.5-0.3,1-0.3,1.7c0,1.1,0.3,1.9,0.9,2.3
			c0.4,0.3,0.8,0.4,1.3,0.4c0.7,0,1.2-0.3,1.6-0.8s0.6-1.3,0.6-2.2C58.4,1387.8,58.2,1387.2,57.9,1386.6z"/>
		<path class="st1" d="M68.1,1383.6c0,0,0.1,0,0.2,0v2.6c-0.2,0-0.3,0-0.4,0s-0.2,0-0.3,0c-1,0-1.7,0.3-2,1
			c-0.2,0.4-0.3,0.9-0.3,1.7v4.6h-2.5v-9.6h2.4v1.7c0.4-0.6,0.7-1.1,1-1.3c0.5-0.4,1.1-0.6,1.8-0.6C68,1383.6,68,1383.6,68.1,1383.6
			z"/>
		<path class="st1" d="M72.3,1382.7h-2.5v-2.3h2.5V1382.7z M69.8,1383.8h2.5v9.6h-2.5V1383.8z"/>
		<path class="st1" d="M86.7,1383.8c0.4,0.2,0.8,0.5,1.1,0.9c0.3,0.3,0.5,0.7,0.5,1.2c0.1,0.3,0.1,0.8,0.1,1.4l0,6h-2.6v-6.1
			c0-0.4-0.1-0.7-0.2-0.9c-0.2-0.4-0.6-0.7-1.2-0.7c-0.7,0-1.2,0.3-1.4,0.9c-0.1,0.3-0.2,0.7-0.2,1.1v5.7h-2.5v-5.7
			c0-0.6-0.1-1-0.2-1.2c-0.2-0.5-0.6-0.7-1.2-0.7c-0.7,0-1.2,0.2-1.4,0.7c-0.1,0.3-0.2,0.7-0.2,1.2v5.8h-2.5v-9.6h2.4v1.4
			c0.3-0.5,0.6-0.9,0.9-1.1c0.5-0.4,1.1-0.6,1.9-0.6c0.7,0,1.3,0.2,1.8,0.5c0.4,0.3,0.6,0.7,0.8,1.2c0.3-0.6,0.7-1,1.2-1.2
			c0.5-0.3,1.1-0.4,1.7-0.4C85.9,1383.6,86.3,1383.7,86.7,1383.8z"/>
		<path class="st1" d="M94.5,1387.5c0.5-0.1,0.8-0.1,1-0.2c0.4-0.2,0.5-0.4,0.5-0.7c0-0.4-0.1-0.7-0.4-0.8c-0.3-0.1-0.7-0.2-1.2-0.2
			c-0.6,0-1,0.1-1.3,0.4c-0.2,0.2-0.3,0.5-0.4,0.9h-2.4c0.1-0.8,0.3-1.5,0.7-2.1c0.7-0.8,1.8-1.3,3.4-1.3c1.1,0,2,0.2,2.8,0.6
			s1.2,1.2,1.2,2.4v4.4c0,0.3,0,0.7,0,1.1c0,0.3,0.1,0.6,0.1,0.7s0.2,0.2,0.4,0.3v0.4h-2.7c-0.1-0.2-0.1-0.4-0.2-0.5
			s-0.1-0.4-0.1-0.6c-0.3,0.4-0.7,0.7-1.2,1c-0.5,0.3-1.2,0.5-1.8,0.5c-0.9,0-1.6-0.2-2.2-0.7c-0.6-0.5-0.9-1.2-0.9-2.1
			c0-1.2,0.5-2,1.4-2.6c0.5-0.3,1.2-0.5,2.2-0.6L94.5,1387.5z M96.1,1388.7c-0.2,0.1-0.3,0.2-0.5,0.2c-0.2,0.1-0.4,0.1-0.7,0.2
			l-0.6,0.1c-0.5,0.1-0.9,0.2-1.2,0.3c-0.4,0.2-0.6,0.6-0.6,1.1c0,0.4,0.1,0.7,0.4,0.9c0.2,0.2,0.5,0.3,0.9,0.3
			c0.5,0,1.1-0.2,1.5-0.5c0.5-0.3,0.7-0.9,0.7-1.7V1388.7z"/>
		<path class="st1" d="M106.1,1383.6c0,0,0.1,0,0.2,0v2.6c-0.2,0-0.3,0-0.4,0s-0.2,0-0.3,0c-1,0-1.7,0.3-2,1
			c-0.2,0.4-0.3,0.9-0.3,1.7v4.6h-2.5v-9.6h2.4v1.7c0.4-0.6,0.7-1.1,1-1.3c0.5-0.4,1.1-0.6,1.8-0.6
			C106,1383.6,106,1383.6,106.1,1383.6z"/>
		<path class="st1" d="M108.1,1395.2l0.3,0c0.2,0,0.5,0,0.7,0s0.4-0.1,0.6-0.2c0.1-0.1,0.3-0.3,0.4-0.6s0.2-0.5,0.2-0.6l-3.5-10h2.8
			l2.1,7.1l2-7.1h2.7l-3.3,9.4c-0.6,1.8-1.1,2.9-1.5,3.4c-0.4,0.4-1.1,0.7-2.2,0.7c-0.2,0-0.4,0-0.5,0c-0.1,0-0.3,0-0.6,0V1395.2z"
			/>
	</g>
	<text transform="matrix(1 0 0 1 49.2847 1427.9143)" class="st2 st3 st4">Helvetica</text>
	<g>
		<path class="st1" d="M54.1,1471.7c0.1,0.4,0.2,0.8,0.3,0.9c0.3,0.3,0.9,0.5,1.7,0.5c0.5,0,0.9-0.1,1.2-0.2s0.4-0.4,0.4-0.7
			c0-0.3-0.1-0.5-0.4-0.6s-1.1-0.4-2.6-0.8c-1.1-0.3-1.9-0.6-2.3-1c-0.4-0.4-0.7-1-0.7-1.7c0-0.9,0.3-1.6,1-2.3c0.7-0.6,1.7-1,2.9-1
			c1.2,0,2.2,0.2,2.9,0.7c0.8,0.5,1.2,1.3,1.3,2.5h-2.5c0-0.3-0.1-0.6-0.3-0.8c-0.3-0.3-0.7-0.5-1.4-0.5c-0.5,0-0.9,0.1-1.2,0.3
			s-0.3,0.4-0.3,0.6c0,0.3,0.1,0.5,0.4,0.6c0.2,0.1,1.1,0.4,2.6,0.7c1,0.2,1.7,0.6,2.2,1.1c0.5,0.5,0.7,1.1,0.7,1.8
			c0,0.9-0.4,1.7-1.1,2.3c-0.7,0.6-1.8,0.9-3.3,0.9c-1.5,0-2.6-0.3-3.3-1c-0.7-0.6-1.1-1.4-1.1-2.4H54.1z"/>
		<path class="st1" d="M68.4,1465.3c0.7,0.3,1.2,0.8,1.7,1.4c0.4,0.6,0.6,1.2,0.8,2c0.1,0.4,0.1,1.1,0.1,1.9h-7c0,1,0.4,1.6,1,2
			c0.4,0.2,0.8,0.4,1.4,0.4c0.6,0,1-0.1,1.4-0.4c0.2-0.2,0.4-0.4,0.5-0.7h2.6c-0.1,0.6-0.4,1.1-0.9,1.7c-0.9,0.9-2.1,1.4-3.6,1.4
			c-1.3,0-2.4-0.4-3.4-1.2s-1.5-2.1-1.5-3.8c0-1.7,0.4-2.9,1.3-3.8c0.9-0.9,2-1.3,3.4-1.3C67,1464.9,67.7,1465,68.4,1465.3z
			 M64.7,1467.5c-0.4,0.4-0.6,0.9-0.7,1.5h4.3c0-0.7-0.3-1.2-0.7-1.5c-0.4-0.3-0.9-0.5-1.5-0.5C65.5,1467,65,1467.1,64.7,1467.5z"/>
		<path class="st1" d="M77.9,1468.6c0-0.4-0.2-0.7-0.4-1c-0.3-0.4-0.7-0.6-1.3-0.6c-0.8,0-1.4,0.4-1.7,1.3c-0.2,0.4-0.2,1-0.2,1.8
			c0,0.7,0.1,1.3,0.2,1.7c0.3,0.8,0.9,1.2,1.7,1.2c0.6,0,1-0.2,1.3-0.5s0.4-0.7,0.4-1.2h2.6c-0.1,0.8-0.3,1.5-0.8,2.2
			c-0.8,1.1-2,1.6-3.5,1.6s-2.7-0.5-3.4-1.4c-0.7-0.9-1.1-2.1-1.1-3.6c0-1.6,0.4-2.9,1.2-3.8c0.8-0.9,1.9-1.4,3.3-1.4
			c1.2,0,2.2,0.3,3,0.8s1.2,1.5,1.4,2.9H77.9z"/>
		<path class="st1" d="M90.2,1473.6c-0.8,1-2,1.5-3.7,1.5s-2.9-0.5-3.7-1.5s-1.2-2.2-1.2-3.6c0-1.4,0.4-2.6,1.2-3.6s2-1.5,3.7-1.5
			s2.9,0.5,3.7,1.5s1.2,2.2,1.2,3.6C91.4,1471.4,91,1472.6,90.2,1473.6z M88.2,1472.2c0.4-0.5,0.6-1.3,0.6-2.2c0-1-0.2-1.7-0.6-2.2
			c-0.4-0.5-1-0.8-1.7-0.8s-1.3,0.3-1.7,0.8c-0.4,0.5-0.6,1.3-0.6,2.2c0,1,0.2,1.7,0.6,2.2c0.4,0.5,1,0.8,1.7,0.8
			S87.8,1472.7,88.2,1472.2z"/>
		<path class="st1" d="M100.9,1465.7c0.6,0.5,0.9,1.4,0.9,2.6v6.5h-2.6v-5.8c0-0.5-0.1-0.9-0.2-1.2c-0.2-0.5-0.7-0.7-1.4-0.7
			c-0.8,0-1.4,0.4-1.7,1.1c-0.2,0.4-0.2,0.9-0.2,1.5v5.2h-2.5v-9.6h2.4v1.4c0.3-0.5,0.6-0.8,0.9-1.1c0.5-0.4,1.2-0.6,2-0.6
			C99.5,1464.9,100.3,1465.2,100.9,1465.7z"/>
		<path class="st1" d="M109.3,1465.3c0.5,0.3,0.8,0.6,1.1,1.1v-4.6h2.5v12.9h-2.4v-1.3c-0.4,0.6-0.8,1-1.2,1.2s-1,0.4-1.7,0.4
			c-1.1,0-2.1-0.5-2.8-1.4c-0.8-0.9-1.1-2.1-1.1-3.5c0-1.6,0.4-2.9,1.1-3.9s1.8-1.4,3-1.4C108.3,1464.9,108.8,1465.1,109.3,1465.3z
			 M109.9,1472.1c0.4-0.5,0.6-1.2,0.6-2c0-1.2-0.3-2-0.9-2.5c-0.4-0.3-0.8-0.5-1.3-0.5c-0.7,0-1.3,0.3-1.6,0.8
			c-0.3,0.6-0.5,1.2-0.5,2.1c0,0.9,0.2,1.6,0.5,2.1s0.9,0.8,1.6,0.8S109.5,1472.7,109.9,1472.1z"/>
		<path class="st1" d="M119,1468.9c0.5-0.1,0.8-0.1,1-0.2c0.4-0.2,0.5-0.4,0.5-0.7c0-0.4-0.1-0.7-0.4-0.8c-0.3-0.1-0.7-0.2-1.2-0.2
			c-0.6,0-1,0.1-1.3,0.4c-0.2,0.2-0.3,0.5-0.4,0.9h-2.4c0.1-0.8,0.3-1.5,0.7-2.1c0.7-0.8,1.8-1.3,3.4-1.3c1.1,0,2,0.2,2.8,0.6
			s1.2,1.2,1.2,2.4v4.4c0,0.3,0,0.7,0,1.1c0,0.3,0.1,0.6,0.1,0.7s0.2,0.2,0.4,0.3v0.4h-2.7c-0.1-0.2-0.1-0.4-0.2-0.5
			s-0.1-0.4-0.1-0.6c-0.3,0.4-0.7,0.7-1.2,1c-0.5,0.3-1.2,0.5-1.8,0.5c-0.9,0-1.6-0.2-2.2-0.7c-0.6-0.5-0.9-1.2-0.9-2.1
			c0-1.2,0.5-2,1.4-2.6c0.5-0.3,1.2-0.5,2.2-0.6L119,1468.9z M120.5,1470.1c-0.2,0.1-0.3,0.2-0.5,0.2c-0.2,0.1-0.4,0.1-0.7,0.2
			l-0.6,0.1c-0.5,0.1-0.9,0.2-1.2,0.3c-0.4,0.2-0.6,0.6-0.6,1.1c0,0.4,0.1,0.7,0.4,0.9c0.2,0.2,0.5,0.3,0.9,0.3
			c0.5,0,1.1-0.2,1.5-0.5c0.5-0.3,0.7-0.9,0.7-1.7V1470.1z"/>
		<path class="st1" d="M130.5,1464.9c0,0,0.1,0,0.2,0v2.6c-0.2,0-0.3,0-0.4,0s-0.2,0-0.3,0c-1,0-1.7,0.3-2,1
			c-0.2,0.4-0.3,0.9-0.3,1.7v4.6h-2.5v-9.6h2.4v1.7c0.4-0.6,0.7-1.1,1-1.3c0.5-0.4,1.1-0.6,1.8-0.6
			C130.4,1464.9,130.5,1464.9,130.5,1464.9z"/>
		<path class="st1" d="M132.6,1476.6l0.3,0c0.2,0,0.5,0,0.7,0s0.4-0.1,0.6-0.2c0.1-0.1,0.3-0.3,0.4-0.6s0.2-0.5,0.2-0.6l-3.5-10h2.8
			l2.1,7.1l2-7.1h2.7l-3.3,9.4c-0.6,1.8-1.1,2.9-1.5,3.4c-0.4,0.4-1.1,0.7-2.2,0.7c-0.2,0-0.4,0-0.5,0c-0.1,0-0.3,0-0.6,0V1476.6z"
			/>
	</g>
	<text transform="matrix(1 0 0 1 48.7012 1509.2754)" class="st2 st5 st4">Arial</text>
</g>
<g id="maincolors">
	<rect x="352" y="1366" class="st2" width="80" height="200"/>
	<text transform="matrix(1 0 0 1 352.0794 1591.2461)" class="st6 st5 st7">#86efac</text>
	<rect x="452" y="1366" class="st8" width="80" height="200"/>
	<text transform="matrix(1 0 0 1 451.6231 1591.0782)" class="st6 st5 st7">#616161</text>
	<rect x="552" y="1366" class="st9" width="80" height="200"/>
	<text transform="matrix(1 0 0 1 551.623 1591.0782)" class="st6 st5 st7">#99a39d</text>
	<rect x="652" y="1366" class="st10" width="80" height="200"/>
	<text transform="matrix(1 0 0 1 651.9109 1591.5582)" class="st6 st5 st7">#f2f2f2</text>
	<g id="title">
		<path class="st0" d="M355.8,1335.1h-2.2v-18.6h2.2v2.8h0.1c0.6-1.1,1.3-1.9,2.4-2.5c1-0.6,2.2-0.8,3.4-0.8c0.9,0,1.6,0.1,2.2,0.3
			c0.6,0.2,1.1,0.4,1.5,0.8c0.4,0.3,0.8,0.7,1,1.1s0.5,0.9,0.7,1.4c0.6-1.2,1.5-2.1,2.5-2.7s2.2-0.9,3.6-0.9c1.3,0,2.3,0.2,3,0.6
			s1.3,1,1.7,1.7c0.4,0.7,0.7,1.5,0.8,2.4c0.1,0.9,0.2,1.8,0.2,2.7v11.8h-2.2v-12.9c0-1.3-0.3-2.4-0.8-3.2c-0.6-0.8-1.6-1.2-3.1-1.2
			c-0.8,0-1.6,0.2-2.3,0.5c-0.7,0.3-1.4,0.9-1.9,1.6c-0.2,0.3-0.4,0.7-0.6,1.1c-0.2,0.4-0.3,0.9-0.4,1.3c-0.1,0.5-0.2,0.9-0.2,1.4
			c0,0.5-0.1,0.9-0.1,1.3v10h-2.2v-12.9c0-1.3-0.3-2.4-0.8-3.2c-0.6-0.8-1.6-1.2-3.1-1.2c-0.8,0-1.6,0.2-2.3,0.5s-1.4,0.9-1.9,1.6
			c-0.2,0.3-0.4,0.7-0.6,1.1c-0.2,0.4-0.3,0.9-0.4,1.3c-0.1,0.5-0.2,0.9-0.2,1.4c0,0.5-0.1,0.9-0.1,1.3V1335.1z"/>
		<path class="st0" d="M392.5,1324.2c0.4,0,0.9-0.1,1.5-0.2s1-0.2,1.4-0.4c0.4-0.2,0.6-0.4,0.7-0.8c0.1-0.4,0.1-0.8,0.1-1.1
			c0-1.1-0.4-2-1.1-2.7c-0.7-0.7-1.9-1.1-3.6-1.1c-0.7,0-1.4,0.1-2.1,0.2c-0.6,0.1-1.2,0.4-1.6,0.7c-0.5,0.3-0.9,0.8-1.2,1.3
			c-0.3,0.5-0.5,1.2-0.6,2h-2.2c0.1-1.1,0.3-2,0.8-2.8c0.4-0.8,1-1.4,1.7-1.9c0.7-0.5,1.5-0.9,2.4-1.1c0.9-0.2,1.9-0.3,2.9-0.3
			c0.9,0,1.8,0.1,2.6,0.3c0.8,0.2,1.5,0.5,2.2,1c0.6,0.4,1.1,1,1.4,1.8s0.5,1.7,0.5,2.7v10.2c0,0.8,0.2,1.4,0.5,1.6
			c0.3,0.2,0.9,0.2,1.8-0.2v1.7c-0.2,0-0.4,0.1-0.7,0.2c-0.3,0.1-0.6,0.1-1,0.1c-0.3,0-0.7,0-1-0.1c-0.4,0-0.6-0.2-0.9-0.3
			c-0.2-0.2-0.4-0.4-0.5-0.6c-0.1-0.3-0.2-0.5-0.3-0.8c0-0.3-0.1-0.6-0.1-1c-0.9,1-2,1.8-3.1,2.3s-2.4,0.8-3.8,0.8
			c-0.8,0-1.6-0.1-2.4-0.3c-0.8-0.2-1.4-0.6-2-1c-0.6-0.5-1-1-1.4-1.7c-0.3-0.7-0.5-1.4-0.5-2.4c0-3.2,2.2-5,6.5-5.6L392.5,1324.2z
			 M396.1,1325.3c-0.9,0.4-1.8,0.6-2.8,0.8c-0.9,0.1-1.9,0.2-2.8,0.3c-1.7,0.1-2.9,0.5-3.9,1.1c-0.9,0.6-1.4,1.6-1.4,2.8
			c0,0.6,0.1,1.1,0.3,1.5s0.5,0.8,0.9,1c0.4,0.3,0.8,0.5,1.3,0.6c0.5,0.1,1,0.2,1.5,0.2c0.9,0,1.7-0.1,2.5-0.3
			c0.8-0.2,1.5-0.5,2.2-1c0.6-0.4,1.1-1,1.5-1.7c0.4-0.7,0.6-1.5,0.6-2.4V1325.3z"/>
		<path class="st0" d="M404.1,1312.4v-3.2h2.4v3.2H404.1z M404.2,1335.1v-18.6h2.2v18.6H404.2z"/>
		<path class="st0" d="M414.1,1335.1h-2.2v-18.6h2.2v2.6c0.9-0.9,1.8-1.7,2.7-2.2s2-0.9,3.3-0.9c1.2,0,2.2,0.2,3.2,0.6
			c1,0.4,1.8,1.1,2.5,2.1c0.5,0.7,0.7,1.4,0.8,2.1c0.1,0.7,0.1,1.4,0.1,2.2v12.2h-2.2v-12.2c0-1.7-0.4-2.9-1.1-3.8
			c-0.7-0.8-2-1.3-3.7-1.3c-0.7,0-1.3,0.1-1.8,0.3c-0.6,0.2-1.1,0.5-1.5,0.8c-0.4,0.3-0.8,0.7-1.1,1.2c-0.3,0.4-0.6,0.9-0.7,1.4
			c-0.2,0.6-0.3,1.2-0.4,1.7c0,0.6-0.1,1.2-0.1,1.8V1335.1z"/>
		<path class="st0" d="M445.1,1322.3c-0.4-1.4-1-2.5-2-3.3c-0.9-0.8-2.1-1.2-3.6-1.2c-1.1,0-2.1,0.2-2.8,0.7
			c-0.8,0.5-1.4,1.1-1.9,1.8s-0.9,1.6-1.1,2.6c-0.2,0.9-0.4,1.9-0.4,2.9c0,1,0.1,1.9,0.3,2.9c0.2,0.9,0.6,1.8,1.1,2.5
			c0.5,0.7,1.2,1.3,1.9,1.8s1.8,0.7,2.9,0.7c1.6,0,2.9-0.4,3.9-1.3c1-0.9,1.6-2.1,1.9-3.7h2.3c-0.2,1-0.5,2-0.9,2.8s-1,1.6-1.6,2.2
			c-0.7,0.6-1.4,1.1-2.4,1.4s-2,0.5-3.1,0.5c-1.5,0-2.8-0.3-3.9-0.8s-2-1.2-2.7-2.1c-0.7-0.9-1.2-1.9-1.5-3.1
			c-0.3-1.2-0.5-2.5-0.5-3.9c0-1.3,0.2-2.5,0.6-3.7s0.9-2.2,1.6-3.2c0.7-0.9,1.6-1.6,2.7-2.2c1.1-0.5,2.3-0.8,3.7-0.8
			c2.2,0,3.9,0.5,5.2,1.5s2.2,2.6,2.5,4.8H445.1z"/>
		<path class="st0" d="M459.4,1335.6c-1.2,0-2.3-0.2-3.4-0.6c-1-0.4-2-1-2.7-1.8c-0.8-0.8-1.4-1.8-1.9-3.1c-0.5-1.2-0.7-2.7-0.7-4.3
			c0-1.4,0.2-2.6,0.5-3.8c0.4-1.2,0.9-2.2,1.6-3.1c0.7-0.9,1.6-1.6,2.7-2.1c1.1-0.5,2.3-0.8,3.8-0.8c1.5,0,2.7,0.3,3.8,0.8
			s2,1.2,2.7,2.1c0.7,0.9,1.3,1.9,1.6,3.1c0.3,1.2,0.5,2.5,0.5,3.9c0,1.5-0.2,2.8-0.6,4c-0.4,1.2-1,2.2-1.7,3.1s-1.7,1.5-2.7,2
			C461.8,1335.4,460.7,1335.6,459.4,1335.6z M465.7,1325.8c0-1.1-0.1-2.1-0.4-3.1c-0.2-1-0.6-1.8-1.1-2.5c-0.5-0.7-1.2-1.3-1.9-1.7
			s-1.8-0.6-2.9-0.6c-1.1,0-2.1,0.2-2.9,0.7c-0.8,0.4-1.5,1-2,1.8c-0.5,0.7-0.9,1.6-1.1,2.5c-0.2,0.9-0.4,1.9-0.4,2.9
			c0,1.2,0.1,2.2,0.4,3.2c0.3,1,0.7,1.8,1.2,2.5c0.5,0.7,1.2,1.2,2,1.6c0.8,0.4,1.7,0.6,2.7,0.6c1.1,0,2.1-0.2,2.9-0.7
			c0.8-0.4,1.5-1,2-1.8s0.9-1.6,1.1-2.5C465.6,1327.7,465.7,1326.8,465.7,1325.8z"/>
		<path class="st0" d="M472.3,1335.1v-25.9h2.2v25.9H472.3z"/>
		<path class="st0" d="M487.4,1335.6c-1.2,0-2.3-0.2-3.4-0.6c-1-0.4-2-1-2.7-1.8c-0.8-0.8-1.4-1.8-1.9-3.1c-0.5-1.2-0.7-2.7-0.7-4.3
			c0-1.4,0.2-2.6,0.5-3.8c0.4-1.2,0.9-2.2,1.6-3.1c0.7-0.9,1.6-1.6,2.7-2.1c1.1-0.5,2.3-0.8,3.8-0.8c1.5,0,2.7,0.3,3.8,0.8
			s2,1.2,2.7,2.1c0.7,0.9,1.3,1.9,1.6,3.1c0.3,1.2,0.5,2.5,0.5,3.9c0,1.5-0.2,2.8-0.6,4c-0.4,1.2-1,2.2-1.7,3.1s-1.7,1.5-2.7,2
			C489.8,1335.4,488.7,1335.6,487.4,1335.6z M493.7,1325.8c0-1.1-0.1-2.1-0.4-3.1c-0.2-1-0.6-1.8-1.1-2.5c-0.5-0.7-1.2-1.3-1.9-1.7
			s-1.8-0.6-2.9-0.6c-1.1,0-2.1,0.2-2.9,0.7c-0.8,0.4-1.5,1-2,1.8c-0.5,0.7-0.9,1.6-1.1,2.5c-0.2,0.9-0.4,1.9-0.4,2.9
			c0,1.2,0.1,2.2,0.4,3.2c0.3,1,0.7,1.8,1.2,2.5c0.5,0.7,1.2,1.2,2,1.6c0.8,0.4,1.7,0.6,2.7,0.6c1.1,0,2.1-0.2,2.9-0.7
			c0.8-0.4,1.5-1,2-1.8s0.9-1.6,1.1-2.5C493.6,1327.7,493.7,1326.8,493.7,1325.8z"/>
		<path class="st0" d="M502.2,1335.1h-2.2v-18.6h2.2v3.5h0.1c0.6-1.5,1.4-2.5,2.3-3.1s2.2-0.9,3.8-0.9v2.3c-1.2,0-2.2,0.2-3,0.6
			c-0.8,0.4-1.4,1-1.9,1.7c-0.5,0.7-0.8,1.5-1,2.5s-0.3,1.9-0.3,3V1335.1z"/>
		<path class="st0" d="M513.2,1329.2c0.3,1.6,0.9,2.7,1.8,3.4s2.1,1,3.8,1c0.8,0,1.5-0.1,2.1-0.3c0.6-0.2,1-0.5,1.4-0.8
			c0.4-0.3,0.7-0.7,0.8-1.1c0.2-0.4,0.3-0.8,0.3-1.3c0-0.9-0.3-1.6-0.9-2c-0.6-0.4-1.3-0.8-2.2-1c-0.9-0.3-1.8-0.5-2.9-0.6
			c-1-0.2-2-0.5-2.9-0.8s-1.6-0.9-2.2-1.5c-0.6-0.7-0.9-1.6-0.9-2.8c0-1.6,0.6-2.8,1.7-3.8c1.1-1,2.8-1.5,4.8-1.5
			c2,0,3.7,0.5,4.9,1.4c1.3,0.9,2,2.4,2.3,4.5H523c-0.2-1.4-0.7-2.5-1.6-3c-0.9-0.6-2-0.9-3.4-0.9c-1.4,0-2.4,0.3-3.1,0.9
			c-0.7,0.6-1.1,1.4-1.1,2.3c0,0.8,0.3,1.5,0.9,1.9c0.6,0.4,1.3,0.8,2.2,1.1c0.9,0.3,1.8,0.5,2.9,0.7c1,0.2,2,0.5,2.9,0.9
			c0.9,0.4,1.6,0.9,2.2,1.6c0.6,0.7,0.9,1.6,0.9,2.8c0,0.9-0.2,1.7-0.6,2.4c-0.4,0.7-0.9,1.3-1.6,1.7s-1.5,0.8-2.4,1
			c-0.9,0.2-1.9,0.3-3,0.3c-1.1,0-2.1-0.2-2.9-0.5c-0.9-0.3-1.6-0.8-2.2-1.3s-1.1-1.2-1.4-2c-0.3-0.8-0.5-1.6-0.6-2.5H513.2z"/>
	</g>
</g>
<g id="light_dark">
	<g>
		<rect x="10.5" y="830.5" class="st8" width="389.5" height="399"/>
		<path class="st11" d="M399.8,830.8v398.5h-389V830.8H399.8 M400.3,830.3h-390v399.5h390V830.3L400.3,830.3z"/>
	</g>
	<g id="fu-ori_3_" transform="translate(12,-210)">
		<path id="f_3_" class="st2" d="M102.6,1224.6v5.7h21.5v7h-21.5v13.2h-8.9v-33h31.6v7H102.6z"/>
		<path id="u_3_" class="st2" d="M167.7,1239.5c0,1.6-0.4,3.2-1.2,4.7c-0.8,1.5-2,2.7-3.7,3.8c-1.6,1.1-3.7,2-6.1,2.6
			c-2.4,0.6-5.3,0.9-8.6,0.9s-6.1-0.3-8.6-0.9c-2.5-0.6-4.5-1.5-6.1-2.6c-1.6-1.1-2.9-2.4-3.7-3.8c-0.8-1.5-1.2-3-1.2-4.7v-21.8h8.9
			v18.7c0,1.1,0.1,2.2,0.4,3.1c0.3,1,0.8,1.8,1.6,2.6c0.8,0.7,1.9,1.3,3.3,1.8c1.4,0.4,3.2,0.6,5.5,0.6c2.2,0,4-0.2,5.4-0.6
			s2.5-1,3.2-1.8c0.8-0.7,1.3-1.6,1.6-2.6c0.3-1,0.4-2,0.4-3.1v-18.7h8.9L167.7,1239.5z"/>
		<path id="_x2D__3_" class="st2" d="M171.3,1238.1v-7.9H191v7.9H171.3z"/>
		<path id="o_3_" class="st2" d="M239.1,1235c0,2.8-0.5,5.3-1.6,7.5c-1,2.2-2.5,4-4.5,5.4c-1.9,1.5-4.3,2.6-7.1,3.3
			c-2.8,0.7-5.9,1.1-9.3,1.1c-3.4,0-6.6-0.4-9.4-1.1c-2.8-0.8-5.1-1.9-7.1-3.3c-2-1.5-3.5-3.3-4.5-5.4c-1.1-2.2-1.6-4.7-1.6-7.5
			c0-2.8,0.5-5.3,1.6-7.5c1.1-2.2,2.6-4,4.5-5.4c2-1.5,4.3-2.6,7.1-3.3c2.8-0.8,5.9-1.1,9.4-1.1c3.5,0,6.6,0.4,9.3,1.1
			c2.8,0.7,5.1,1.8,7.1,3.3c1.9,1.5,3.4,3.3,4.5,5.4C238.6,1229.6,239.1,1232.1,239.1,1235z M230.1,1235c0-1.2-0.2-2.5-0.6-3.7
			c-0.4-1.2-1.1-2.3-2.1-3.3c-1-1-2.4-1.8-4.1-2.4c-1.7-0.6-3.9-0.9-6.6-0.9c-1.8,0-3.4,0.1-4.7,0.4c-1.4,0.3-2.5,0.7-3.5,1.2
			c-1,0.5-1.8,1.1-2.5,1.8c-0.7,0.7-1.2,1.4-1.6,2.1c-0.4,0.8-0.7,1.5-0.9,2.4c-0.2,0.8-0.2,1.6-0.2,2.4c0,0.8,0.1,1.6,0.2,2.5
			c0.2,0.8,0.5,1.6,0.9,2.4c0.4,0.8,0.9,1.5,1.6,2.1c0.7,0.7,1.5,1.2,2.5,1.7c1,0.5,2.2,0.9,3.5,1.2c1.4,0.3,2.9,0.4,4.7,0.4
			c2.7,0,4.9-0.3,6.6-0.9c1.7-0.6,3.1-1.4,4.1-2.4c1-1,1.7-2.1,2.1-3.3C229.9,1237.4,230.1,1236.2,230.1,1235z"/>
		<path id="r_3_" class="st2" d="M251.3,1250.6h-8.9v-33h22.4c2.4,0,4.4,0.2,6.1,0.7c1.7,0.5,3,1.2,4.1,2.1c1.1,0.9,1.8,2,2.3,3.3
			c0.5,1.3,0.7,2.7,0.7,4.3c0,1.4-0.2,2.6-0.6,3.6c-0.4,1-0.9,1.9-1.6,2.7c-0.7,0.7-1.4,1.4-2.3,1.9c-0.9,0.5-1.8,0.9-2.8,1.3
			l10.8,13h-10.4l-10-12.1h-9.7V1250.6z M268.9,1228c0-0.6-0.1-1.2-0.3-1.6c-0.2-0.4-0.4-0.8-0.9-1.1c-0.4-0.3-1-0.5-1.7-0.6
			c-0.7-0.1-1.6-0.2-2.6-0.2h-12.2v7.1h12.2c1,0,1.9-0.1,2.6-0.2c0.7-0.1,1.3-0.3,1.7-0.6c0.4-0.3,0.7-0.7,0.9-1.1
			C268.8,1229.2,268.9,1228.7,268.9,1228z"/>
		<path id="i_3_" class="st2" d="M284.8,1250.6v-33h8.9v33H284.8z"/>
	</g>
	<g>
		<rect x="400.2" y="830.5" class="st12" width="389.5" height="399"/>
		<path class="st11" d="M789.5,830.8v398.5h-389V830.8H789.5 M790,830.3H400v399.5h390V830.3L790,830.3z"/>
	</g>
	<g id="fu-ori_2_" transform="translate(12,-210)">
		<path id="f_2_" class="st9" d="M499,1221.4v5.7h21.5v7H499v13.2h-8.9v-33h31.6v7H499z"/>
		<path id="u_2_" class="st9" d="M564.2,1236.2c0,1.6-0.4,3.2-1.2,4.7c-0.8,1.5-2,2.7-3.7,3.8c-1.6,1.1-3.7,2-6.1,2.6
			c-2.4,0.6-5.3,0.9-8.6,0.9c-3.3,0-6.1-0.3-8.6-0.9c-2.5-0.6-4.5-1.5-6.1-2.6s-2.9-2.4-3.7-3.8c-0.8-1.5-1.2-3-1.2-4.7v-21.8h8.9
			v18.7c0,1.1,0.1,2.2,0.4,3.1c0.3,1,0.8,1.8,1.6,2.6c0.8,0.7,1.9,1.3,3.3,1.8c1.4,0.4,3.2,0.6,5.5,0.6c2.2,0,4-0.2,5.4-0.6
			s2.5-1,3.2-1.8c0.8-0.7,1.3-1.6,1.6-2.6c0.3-1,0.4-2,0.4-3.1v-18.7h8.9V1236.2z"/>
		<path id="_x2D__2_" class="st9" d="M567.7,1234.8v-7.9h19.7v7.9H567.7z"/>
		<path id="o_2_" class="st9" d="M635.5,1231.7c0,2.8-0.5,5.3-1.6,7.5c-1,2.2-2.5,4-4.5,5.4c-1.9,1.5-4.3,2.6-7.1,3.3
			c-2.8,0.7-5.9,1.1-9.3,1.1c-3.4,0-6.6-0.4-9.4-1.1c-2.8-0.8-5.1-1.9-7.1-3.3c-2-1.5-3.5-3.3-4.5-5.4c-1.1-2.2-1.6-4.7-1.6-7.5
			c0-2.8,0.5-5.3,1.6-7.5c1.1-2.2,2.6-4,4.5-5.4c2-1.5,4.3-2.6,7.1-3.3c2.8-0.8,5.9-1.1,9.4-1.1c3.5,0,6.6,0.4,9.3,1.1
			c2.8,0.7,5.1,1.8,7.1,3.3c1.9,1.5,3.4,3.3,4.5,5.4C635,1226.4,635.5,1228.9,635.5,1231.7z M626.5,1231.7c0-1.2-0.2-2.5-0.6-3.7
			c-0.4-1.2-1.1-2.3-2.1-3.3c-1-1-2.4-1.8-4.1-2.4c-1.7-0.6-3.9-0.9-6.6-0.9c-1.8,0-3.4,0.1-4.7,0.4c-1.4,0.3-2.5,0.7-3.5,1.2
			c-1,0.5-1.8,1.1-2.5,1.8c-0.7,0.7-1.2,1.4-1.6,2.1c-0.4,0.8-0.7,1.5-0.9,2.4c-0.2,0.8-0.2,1.6-0.2,2.4c0,0.8,0.1,1.6,0.2,2.5
			c0.2,0.8,0.5,1.6,0.9,2.4c0.4,0.8,0.9,1.5,1.6,2.1c0.7,0.7,1.5,1.2,2.5,1.7c1,0.5,2.2,0.9,3.5,1.2c1.4,0.3,2.9,0.4,4.7,0.4
			c2.7,0,4.9-0.3,6.6-0.9c1.7-0.6,3.1-1.4,4.1-2.4c1-1,1.7-2.1,2.1-3.3C626.3,1234.2,626.5,1233,626.5,1231.7z"/>
		<path id="r_2_" class="st9" d="M647.8,1247.4h-8.9v-33h22.4c2.4,0,4.4,0.2,6.1,0.7c1.7,0.5,3,1.2,4.1,2.1c1.1,0.9,1.8,2,2.3,3.3
			c0.5,1.3,0.7,2.7,0.7,4.3c0,1.4-0.2,2.6-0.6,3.6c-0.4,1-0.9,1.9-1.6,2.7c-0.7,0.7-1.4,1.4-2.3,1.9c-0.9,0.5-1.8,0.9-2.8,1.3
			l10.8,13h-10.4l-10-12.1h-9.7V1247.4z M665.4,1224.8c0-0.6-0.1-1.2-0.3-1.6c-0.2-0.4-0.4-0.8-0.9-1.1c-0.4-0.3-1-0.5-1.7-0.6
			c-0.7-0.1-1.6-0.2-2.6-0.2h-12.2v7.1H660c1,0,1.9-0.1,2.6-0.2c0.7-0.1,1.3-0.3,1.7-0.6c0.4-0.3,0.7-0.7,0.9-1.1
			C665.3,1226,665.4,1225.4,665.4,1224.8z"/>
		<path id="i_2_" class="st9" d="M681.2,1247.4v-33h8.9v33H681.2z"/>
	</g>
</g>
<g id="secondary">
	<g>
		<rect x="10.2" y="420.2" class="st12" width="779.5" height="399.5"/>
		<path class="st11" d="M789.5,420.5v399h-779v-399H789.5 M790,420H10v400h780V420L790,420z"/>
	</g>
	<g id="fu-ori_1_" transform="translate(12,-210)">
		<path id="f_1_" class="st9" d="M160.8,804.2v14.3h53.7v17.6h-53.7v32.9h-22.3v-82.4h78.9v17.6H160.8z"/>
		<path id="u_1_" class="st9" d="M323.7,841.2c0,4.1-1,8-3.1,11.6c-2,3.6-5.1,6.8-9.2,9.5c-4.1,2.7-9.2,4.9-15.3,6.5
			c-6.1,1.6-13.2,2.3-21.4,2.3c-8.2,0-15.3-0.8-21.5-2.3c-6.1-1.6-11.2-3.8-15.3-6.5c-4.1-2.7-7.1-5.9-9.2-9.5
			c-2-3.6-3.1-7.5-3.1-11.6v-54.6h22.2v46.6c0,2.8,0.3,5.4,1,7.9c0.7,2.4,2,4.6,4,6.4c2,1.8,4.7,3.3,8.2,4.4
			c3.5,1.1,8.1,1.6,13.7,1.6c5.6,0,10.1-0.5,13.6-1.6c3.5-1.1,6.2-2.5,8.1-4.4c2-1.8,3.3-4,4-6.4c0.7-2.5,1-5.1,1-7.9v-46.6h22.3
			L323.7,841.2z"/>
		<path id="_x2D__1_" class="st9" d="M332.6,837.7V818h49.3v19.7H332.6z"/>
		<path id="o_1_" class="st9" d="M502.1,830c0,7.1-1.3,13.3-3.9,18.8c-2.6,5.4-6.3,9.9-11.2,13.6c-4.9,3.6-10.8,6.4-17.7,8.3
			c-6.9,1.8-14.7,2.8-23.3,2.8c-8.6,0-16.4-0.9-23.4-2.8c-6.9-1.9-12.9-4.6-17.8-8.3c-4.9-3.6-8.7-8.2-11.3-13.6
			c-2.6-5.4-4-11.7-4-18.8c0-7.1,1.3-13.3,4-18.7c2.6-5.4,6.4-10,11.3-13.6c4.9-3.6,10.8-6.4,17.8-8.2c7-1.9,14.8-2.8,23.4-2.8
			c8.6,0,16.4,0.9,23.3,2.8c6.9,1.8,12.8,4.6,17.7,8.2c4.9,3.6,8.6,8.2,11.2,13.6C500.8,816.7,502.1,822.9,502.1,830z M479.5,830
			c0-3.1-0.5-6.1-1.5-9.2c-1-3.1-2.7-5.8-5.2-8.3c-2.5-2.4-5.9-4.4-10.2-5.9c-4.3-1.5-9.8-2.3-16.5-2.3c-4.5,0-8.4,0.4-11.9,1.1
			c-3.4,0.7-6.4,1.6-8.8,2.9c-2.5,1.2-4.6,2.7-6.3,4.4c-1.7,1.6-3,3.4-4,5.3c-1,1.9-1.7,3.9-2.2,5.9c-0.4,2-0.6,4.1-0.6,6.1
			c0,2,0.2,4.1,0.6,6.2c0.4,2.1,1.2,4.1,2.2,6c1,1.9,2.3,3.6,4,5.3c1.7,1.6,3.8,3.1,6.3,4.3c2.5,1.2,5.4,2.2,8.8,2.9
			c3.4,0.7,7.4,1,11.9,1c6.7,0,12.2-0.8,16.5-2.3c4.3-1.5,7.7-3.5,10.2-5.9c2.5-2.4,4.3-5.2,5.2-8.2
			C479,836.2,479.5,833.1,479.5,830z"/>
		<path id="r_1_" class="st9" d="M532.6,869.1h-22.3v-82.4h55.9c6,0,11.1,0.6,15.3,1.9c4.2,1.2,7.6,3,10.2,5.3
			c2.6,2.3,4.5,5,5.7,8.3c1.2,3.2,1.8,6.8,1.8,10.7c0,3.5-0.5,6.5-1.5,9.1c-1,2.6-2.3,4.8-4,6.7c-1.6,1.8-3.6,3.4-5.8,4.7
			c-2.2,1.3-4.5,2.3-7,3.2l27,32.6H582l-25-30.4h-24.3V869.1z M576.7,812.7c0-1.6-0.2-3-0.7-4.1c-0.4-1.1-1.1-2-2.2-2.7
			c-1-0.7-2.4-1.2-4.2-1.6c-1.7-0.3-3.9-0.5-6.5-0.5h-30.5v17.6h30.5c2.6,0,4.8-0.2,6.5-0.5c1.8-0.3,3.2-0.8,4.2-1.5
			c1-0.7,1.8-1.6,2.2-2.8C576.5,815.6,576.7,814.3,576.7,812.7z"/>
		<path id="i_1_" class="st9" d="M616.3,869.1v-82.4h22.2v82.4H616.3z"/>
	</g>
</g>
<g id="primary">
	<g>
		<rect x="10.2" y="10.2" class="st12" width="779.5" height="399.5"/>
		<path class="st11" d="M789.5,10.5v399h-779v-399H789.5 M790,10H10v400h780V10L790,10z"/>
	</g>
	<g id="fu-ori" transform="translate(12,-210)">
		<path id="f" class="st2" d="M160.8,399.2v14.3h53.7v17.6h-53.7v32.9h-22.3v-82.4h78.9v17.6H160.8z"/>
		<path id="u" class="st2" d="M323.7,436.2c0,4.1-1,8-3.1,11.6c-2,3.6-5.1,6.8-9.2,9.5c-4.1,2.7-9.2,4.9-15.3,6.5
			c-6.1,1.6-13.2,2.3-21.4,2.3c-8.2,0-15.3-0.8-21.5-2.3c-6.1-1.6-11.2-3.8-15.3-6.5c-4.1-2.7-7.1-5.9-9.2-9.5
			c-2-3.6-3.1-7.5-3.1-11.6v-54.6h22.2v46.6c0,2.8,0.3,5.4,1,7.9c0.7,2.4,2,4.6,4,6.4c2,1.8,4.7,3.3,8.2,4.4
			c3.5,1.1,8.1,1.6,13.7,1.6c5.6,0,10.1-0.5,13.6-1.6c3.5-1.1,6.2-2.5,8.1-4.4c2-1.8,3.3-4,4-6.4c0.7-2.5,1-5.1,1-7.9v-46.6h22.3
			L323.7,436.2z"/>
		<path id="_x2D_" class="st2" d="M332.6,432.7V413h49.3v19.7H332.6z"/>
		<path id="o" class="st2" d="M502.1,425c0,7.1-1.3,13.3-3.9,18.8c-2.6,5.4-6.3,9.9-11.2,13.6c-4.9,3.6-10.8,6.4-17.7,8.3
			c-6.9,1.8-14.7,2.8-23.3,2.8c-8.6,0-16.4-0.9-23.4-2.8c-6.9-1.9-12.9-4.6-17.8-8.3c-4.9-3.6-8.7-8.2-11.3-13.6
			c-2.6-5.4-4-11.7-4-18.8c0-7.1,1.3-13.3,4-18.7c2.6-5.4,6.4-10,11.3-13.6c4.9-3.6,10.8-6.4,17.8-8.2c7-1.9,14.8-2.8,23.4-2.8
			c8.6,0,16.4,0.9,23.3,2.8c6.9,1.8,12.8,4.6,17.7,8.2c4.9,3.6,8.6,8.2,11.2,13.6C500.8,411.7,502.1,417.9,502.1,425z M479.5,425
			c0-3.1-0.5-6.1-1.5-9.2c-1-3.1-2.7-5.8-5.2-8.3c-2.5-2.4-5.9-4.4-10.2-5.9c-4.3-1.5-9.8-2.3-16.5-2.3c-4.5,0-8.4,0.4-11.9,1.1
			c-3.4,0.7-6.4,1.6-8.8,2.9c-2.5,1.2-4.6,2.7-6.3,4.4c-1.7,1.6-3,3.4-4,5.3c-1,1.9-1.7,3.9-2.2,5.9c-0.4,2-0.6,4.1-0.6,6.1
			c0,2,0.2,4.1,0.6,6.2c0.4,2.1,1.2,4.1,2.2,6c1,1.9,2.3,3.6,4,5.3c1.7,1.6,3.8,3.1,6.3,4.3c2.5,1.2,5.4,2.2,8.8,2.9
			c3.4,0.7,7.4,1,11.9,1c6.7,0,12.2-0.8,16.5-2.3c4.3-1.5,7.7-3.5,10.2-5.9c2.5-2.4,4.3-5.2,5.2-8.2
			C479,431.2,479.5,428.1,479.5,425z"/>
		<path id="r" class="st2" d="M532.6,464.1h-22.3v-82.4h55.9c6,0,11.1,0.6,15.3,1.9c4.2,1.2,7.6,3,10.2,5.3c2.6,2.3,4.5,5,5.7,8.3
			c1.2,3.2,1.8,6.8,1.8,10.7c0,3.5-0.5,6.5-1.5,9.1c-1,2.6-2.3,4.8-4,6.7c-1.6,1.8-3.6,3.4-5.8,4.7c-2.2,1.3-4.5,2.3-7,3.2l27,32.6
			H582l-25-30.4h-24.3V464.1z M576.7,407.7c0-1.6-0.2-3-0.7-4.1c-0.4-1.1-1.1-2-2.2-2.7c-1-0.7-2.4-1.2-4.2-1.6
			c-1.7-0.3-3.9-0.5-6.5-0.5h-30.5v17.6h30.5c2.6,0,4.8-0.2,6.5-0.5c1.8-0.3,3.2-0.8,4.2-1.5c1-0.7,1.8-1.6,2.2-2.8
			C576.5,410.6,576.7,409.3,576.7,407.7z"/>
		<path id="i" class="st2" d="M616.3,464.1v-82.4h22.2v82.4H616.3z"/>
	</g>
</g>
</svg>
